<svg version="1.1" xmlns="http://www.w3.org/2000/svg" xmlns:xlink="http://www.w3.org/1999/xlink" width="1252" height="665"><defs/><g><g transform="translate(-29,-22) scale(1,1)"><rect fill="#C0C0C0" stroke="none" x="1113" y="199" width="165" height="263" opacity="0.2"/></g><g transform="translate(-29,-22) scale(1,1)"><rect fill="#ffffff" stroke="none" x="1106" y="192" width="165" height="263"/></g><g transform="translate(-29,-22) scale(1,1)"><path fill="none" stroke="#000000" d="M 1106 192 L 1271 192 L 1271 455 L 1106 455 L 1106 192 Z Z" stroke-miterlimit="10"/></g><g transform="translate(-29,-22) scale(1,1)"><rect fill="#ffffff" stroke="none" x="1096" y="199" width="20" height="10"/></g><g transform="translate(-29,-22) scale(1,1)"><path fill="none" stroke="#000000" d="M 1096 199 L 1116 199 L 1116 209 L 1096 209 L 1096 199 Z Z" stroke-miterlimit="10"/></g><g transform="translate(-29,-22) scale(1,1)"><rect fill="#ffffff" stroke="none" x="1096" y="219" width="20" height="10"/></g><g transform="translate(-29,-22) scale(1,1)"><path fill="none" stroke="#000000" d="M 1096 219 L 1116 219 L 1116 229 L 1096 229 L 1096 219 Z Z" stroke-miterlimit="10"/></g><g transform="translate(-29,-22) scale(1,1)"><g><path fill="none" stroke="none"/><text fill="#000000" stroke="none" font-family="Arial" font-size="13px" font-style="normal" font-weight="bold" text-decoration="none" x="1134" y="211.5">Persistent Datastore</text><path fill="none" stroke="#000000" d="M 1255.5 211.5 L 1131.5 211.5" stroke-miterlimit="10"/></g></g><g transform="translate(-29,-22) scale(1,1)"><path fill="#C0C0C0" stroke="none" d="M 455 153 L 660 153 L 660 190 L 455 190" opacity="0.2"/></g><g transform="translate(-29,-22) scale(1,1)"><path fill="#C0C0C0" stroke="none" d="M 455 153 L 465 143 L 670 143 L 660 153" opacity="0.2"/></g><g transform="translate(-29,-22) scale(1,1)"><path fill="#C0C0C0" stroke="none" d="M 670 143 L 660 153 L 660 190 L 670 180" opacity="0.2"/></g><g transform="translate(-29,-22) scale(1,1)"><path fill="#ffffff" stroke="none" d="M 448 146 L 653 146 L 653 183 L 448 183"/></g><g transform="translate(-29,-22) scale(1,1)"><path fill="#ffffff" stroke="none" d="M 448 146 L 458 136 L 663 136 L 653 146"/></g><g transform="translate(-29,-22) scale(1,1)"><path fill="#ffffff" stroke="none" d="M 663 136 L 653 146 L 653 183 L 663 173"/></g><g transform="translate(-29,-22) scale(1,1)"><path fill="none" stroke="#000000" d="M 448 146 L 653 146 L 653 183 L 448 183 L 448 146" stroke-miterlimit="10"/></g><g transform="translate(-29,-22) scale(1,1)"><path fill="none" stroke="#000000" d="M 448 146 L 458 136 L 663 136 L 653 146 L 448 146" stroke-miterlimit="10"/></g><g transform="translate(-29,-22) scale(1,1)"><path fill="none" stroke="#000000" d="M 663 136 L 653 146 L 653 183 L 663 173 L 663 136" stroke-miterlimit="10"/></g><g transform="translate(-29,-22) scale(1,1)"><g><path fill="none" stroke="none"/><text fill="#000000" stroke="none" font-family="Arial" font-size="13px" font-style="normal" font-weight="bold" text-decoration="none" x="530.5" y="165.5">Sign In</text><path fill="none" stroke="#000000" d="M 573.5 165.5 L 528.5 165.5" stroke-miterlimit="10"/></g></g><g transform="translate(-29,-22) scale(1,1)"><rect fill="#C0C0C0" stroke="none" x="56" y="223" width="174" height="144" opacity="0.2"/></g><g transform="translate(-29,-22) scale(1,1)"><rect fill="#ffffff" stroke="none" x="49" y="216" width="174" height="144"/></g><g transform="translate(-29,-22) scale(1,1)"><path fill="none" stroke="#000000" d="M 49 216 L 223 216 L 223 360 L 49 360 L 49 216 Z Z" stroke-miterlimit="10"/></g><g transform="translate(-29,-22) scale(1,1)"><rect fill="#ffffff" stroke="none" x="39" y="223" width="20" height="10"/></g><g transform="translate(-29,-22) scale(1,1)"><path fill="none" stroke="#000000" d="M 39 223 L 59 223 L 59 233 L 39 233 L 39 223 Z Z" stroke-miterlimit="10"/></g><g transform="translate(-29,-22) scale(1,1)"><rect fill="#ffffff" stroke="none" x="39" y="243" width="20" height="10"/></g><g transform="translate(-29,-22) scale(1,1)"><path fill="none" stroke="#000000" d="M 39 243 L 59 243 L 59 253 L 39 253 L 39 243 Z Z" stroke-miterlimit="10"/></g><g transform="translate(-29,-22) scale(1,1)"><g><path fill="none" stroke="none"/><text fill="#000000" stroke="none" font-family="Arial" font-size="13px" font-style="normal" font-weight="bold" text-decoration="none" x="109.5" y="235.5">Web Client</text><path fill="none" stroke="#000000" d="M 174.5 235.5 L 107.5 235.5" stroke-miterlimit="10"/></g></g><g transform="translate(-29,-22) scale(1,1)"><g><path fill="none" stroke="none"/><text fill="#000000" stroke="none" font-family="Arial" font-size="13px" font-style="normal" font-weight="normal" text-decoration="none" x="53" y="266">Framework: Ember.js</text></g></g><g transform="translate(-29,-22) scale(1,1)"><g><path fill="none" stroke="none"/></g></g><g transform="translate(-29,-22) scale(1,1)"><g><path fill="none" stroke="none"/><text fill="#000000" stroke="none" font-family="Arial" font-size="13px" font-style="normal" font-weight="normal" text-decoration="none" x="53" y="283">CSS Framework: Bootstrap</text></g></g><g transform="translate(-29,-22) scale(1,1)"><g><path fill="none" stroke="none"/></g></g><g transform="translate(-29,-22) scale(1,1)"><g><path fill="none" stroke="none"/><text fill="#000000" stroke="none" font-family="Arial" font-size="13px" font-style="normal" font-weight="normal" text-decoration="none" x="53" y="300">CSS Extension: Sass </text></g></g><g transform="translate(-29,-22) scale(1,1)"><path fill="#C0C0C0" stroke="none" d="M 455 225 L 659 225 L 659 258 L 455 258" opacity="0.2"/></g><g transform="translate(-29,-22) scale(1,1)"><path fill="#C0C0C0" stroke="none" d="M 455 225 L 465 215 L 669 215 L 659 225" opacity="0.2"/></g><g transform="translate(-29,-22) scale(1,1)"><path fill="#C0C0C0" stroke="none" d="M 669 215 L 659 225 L 659 258 L 669 248" opacity="0.2"/></g><g transform="translate(-29,-22) scale(1,1)"><path fill="#ffffff" stroke="none" d="M 448 218 L 652 218 L 652 251 L 448 251"/></g><g transform="translate(-29,-22) scale(1,1)"><path fill="#ffffff" stroke="none" d="M 448 218 L 458 208 L 662 208 L 652 218"/></g><g transform="translate(-29,-22) scale(1,1)"><path fill="#ffffff" stroke="none" d="M 662 208 L 652 218 L 652 251 L 662 241"/></g><g transform="translate(-29,-22) scale(1,1)"><path fill="none" stroke="#000000" d="M 448 218 L 652 218 L 652 251 L 448 251 L 448 218" stroke-miterlimit="10"/></g><g transform="translate(-29,-22) scale(1,1)"><path fill="none" stroke="#000000" d="M 448 218 L 458 208 L 662 208 L 652 218 L 448 218" stroke-miterlimit="10"/></g><g transform="translate(-29,-22) scale(1,1)"><path fill="none" stroke="#000000" d="M 662 208 L 652 218 L 652 251 L 662 241 L 662 208" stroke-miterlimit="10"/></g><g transform="translate(-29,-22) scale(1,1)"><g><path fill="none" stroke="none"/><text fill="#000000" stroke="none" font-family="Arial" font-size="13px" font-style="normal" font-weight="bold" text-decoration="none" x="534" y="237.5">Client</text><path fill="none" stroke="#000000" d="M 568.5 237.5 L 532.5 237.5" stroke-miterlimit="10"/></g></g><g transform="translate(-29,-22) scale(1,1)"><path fill="#C0C0C0" stroke="none" d="M 455 289 L 659 289 L 659 322 L 455 322" opacity="0.2"/></g><g transform="translate(-29,-22) scale(1,1)"><path fill="#C0C0C0" stroke="none" d="M 455 289 L 465 279 L 669 279 L 659 289" opacity="0.2"/></g><g transform="translate(-29,-22) scale(1,1)"><path fill="#C0C0C0" stroke="none" d="M 669 279 L 659 289 L 659 322 L 669 312" opacity="0.2"/></g><g transform="translate(-29,-22) scale(1,1)"><path fill="#ffffff" stroke="none" d="M 448 282 L 652 282 L 652 315 L 448 315"/></g><g transform="translate(-29,-22) scale(1,1)"><path fill="#ffffff" stroke="none" d="M 448 282 L 458 272 L 662 272 L 652 282"/></g><g transform="translate(-29,-22) scale(1,1)"><path fill="#ffffff" stroke="none" d="M 662 272 L 652 282 L 652 315 L 662 305"/></g><g transform="translate(-29,-22) scale(1,1)"><path fill="none" stroke="#000000" d="M 448 282 L 652 282 L 652 315 L 448 315 L 448 282" stroke-miterlimit="10"/></g><g transform="translate(-29,-22) scale(1,1)"><path fill="none" stroke="#000000" d="M 448 282 L 458 272 L 662 272 L 652 282 L 448 282" stroke-miterlimit="10"/></g><g transform="translate(-29,-22) scale(1,1)"><path fill="none" stroke="#000000" d="M 662 272 L 652 282 L 652 315 L 662 305 L 662 272" stroke-miterlimit="10"/></g><g transform="translate(-29,-22) scale(1,1)"><g><path fill="none" stroke="none"/><text fill="#000000" stroke="none" font-family="Arial" font-size="13px" font-style="normal" font-weight="bold" text-decoration="none" x="530" y="301.5">Patient</text><path fill="none" stroke="#000000" d="M 572 301.5 L 529 301.5" stroke-miterlimit="10"/></g></g><g transform="translate(-29,-22) scale(1,1)"><path fill="#C0C0C0" stroke="none" d="M 455 353 L 660 353 L 660 386 L 455 386" opacity="0.2"/></g><g transform="translate(-29,-22) scale(1,1)"><path fill="#C0C0C0" stroke="none" d="M 455 353 L 465 343 L 670 343 L 660 353" opacity="0.2"/></g><g transform="translate(-29,-22) scale(1,1)"><path fill="#C0C0C0" stroke="none" d="M 670 343 L 660 353 L 660 386 L 670 376" opacity="0.2"/></g><g transform="translate(-29,-22) scale(1,1)"><path fill="#ffffff" stroke="none" d="M 448 346 L 653 346 L 653 379 L 448 379"/></g><g transform="translate(-29,-22) scale(1,1)"><path fill="#ffffff" stroke="none" d="M 448 346 L 458 336 L 663 336 L 653 346"/></g><g transform="translate(-29,-22) scale(1,1)"><path fill="#ffffff" stroke="none" d="M 663 336 L 653 346 L 653 379 L 663 369"/></g><g transform="translate(-29,-22) scale(1,1)"><path fill="none" stroke="#000000" d="M 448 346 L 653 346 L 653 379 L 448 379 L 448 346" stroke-miterlimit="10"/></g><g transform="translate(-29,-22) scale(1,1)"><path fill="none" stroke="#000000" d="M 448 346 L 458 336 L 663 336 L 653 346 L 448 346" stroke-miterlimit="10"/></g><g transform="translate(-29,-22) scale(1,1)"><path fill="none" stroke="#000000" d="M 663 336 L 653 346 L 653 379 L 663 369 L 663 336" stroke-miterlimit="10"/></g><g transform="translate(-29,-22) scale(1,1)"><g><path fill="none" stroke="none"/><text fill="#000000" stroke="none" font-family="Arial" font-size="13px" font-style="normal" font-weight="bold" text-decoration="none" x="520" y="365.5">Volunteers</text><path fill="none" stroke="#000000" d="M 584.5 365.5 L 517.5 365.5" stroke-miterlimit="10"/></g></g><g transform="translate(-29,-22) scale(1,1)"><path fill="#C0C0C0" stroke="none" d="M 455 417 L 660 417 L 660 450 L 455 450" opacity="0.2"/></g><g transform="translate(-29,-22) scale(1,1)"><path fill="#C0C0C0" stroke="none" d="M 455 417 L 465 407 L 670 407 L 660 417" opacity="0.2"/></g><g transform="translate(-29,-22) scale(1,1)"><path fill="#C0C0C0" stroke="none" d="M 670 407 L 660 417 L 660 450 L 670 440" opacity="0.2"/></g><g transform="translate(-29,-22) scale(1,1)"><path fill="#ffffff" stroke="none" d="M 448 410 L 653 410 L 653 443 L 448 443"/></g><g transform="translate(-29,-22) scale(1,1)"><path fill="#ffffff" stroke="none" d="M 448 410 L 458 400 L 663 400 L 653 410"/></g><g transform="translate(-29,-22) scale(1,1)"><path fill="#ffffff" stroke="none" d="M 663 400 L 653 410 L 653 443 L 663 433"/></g><g transform="translate(-29,-22) scale(1,1)"><path fill="none" stroke="#000000" d="M 448 410 L 653 410 L 653 443 L 448 443 L 448 410" stroke-miterlimit="10"/></g><g transform="translate(-29,-22) scale(1,1)"><path fill="none" stroke="#000000" d="M 448 410 L 458 400 L 663 400 L 653 410 L 448 410" stroke-miterlimit="10"/></g><g transform="translate(-29,-22) scale(1,1)"><path fill="none" stroke="#000000" d="M 663 400 L 653 410 L 653 443 L 663 433 L 663 400" stroke-miterlimit="10"/></g><g transform="translate(-29,-22) scale(1,1)"><g><path fill="none" stroke="none"/><text fill="#000000" stroke="none" font-family="Arial" font-size="13px" font-style="normal" font-weight="bold" text-decoration="none" x="537" y="429.5">Files</text><path fill="none" stroke="#000000" d="M 566 429.5 L 536 429.5" stroke-miterlimit="10"/></g></g><g transform="translate(-29,-22) scale(1,1)"><path fill="#C0C0C0" stroke="none" d="M 455 481 L 660 481 L 660 514 L 455 514" opacity="0.2"/></g><g transform="translate(-29,-22) scale(1,1)"><path fill="#C0C0C0" stroke="none" d="M 455 481 L 465 471 L 670 471 L 660 481" opacity="0.2"/></g><g transform="translate(-29,-22) scale(1,1)"><path fill="#C0C0C0" stroke="none" d="M 670 471 L 660 481 L 660 514 L 670 504" opacity="0.2"/></g><g transform="translate(-29,-22) scale(1,1)"><path fill="#ffffff" stroke="none" d="M 448 474 L 653 474 L 653 507 L 448 507"/></g><g transform="translate(-29,-22) scale(1,1)"><path fill="#ffffff" stroke="none" d="M 448 474 L 458 464 L 663 464 L 653 474"/></g><g transform="translate(-29,-22) scale(1,1)"><path fill="#ffffff" stroke="none" d="M 663 464 L 653 474 L 653 507 L 663 497"/></g><g transform="translate(-29,-22) scale(1,1)"><path fill="none" stroke="#000000" d="M 448 474 L 653 474 L 653 507 L 448 507 L 448 474" stroke-miterlimit="10"/></g><g transform="translate(-29,-22) scale(1,1)"><path fill="none" stroke="#000000" d="M 448 474 L 458 464 L 663 464 L 653 474 L 448 474" stroke-miterlimit="10"/></g><g transform="translate(-29,-22) scale(1,1)"><path fill="none" stroke="#000000" d="M 663 464 L 653 474 L 653 507 L 663 497 L 663 464" stroke-miterlimit="10"/></g><g transform="translate(-29,-22) scale(1,1)"><g><path fill="none" stroke="none"/><text fill="#000000" stroke="none" font-family="Arial" font-size="13px" font-style="normal" font-weight="bold" text-decoration="none" x="506" y="493.5">Medical History</text><path fill="none" stroke="#000000" d="M 599 493.5 L 503 493.5" stroke-miterlimit="10"/></g></g><g transform="translate(-29,-22) scale(1,1)"><rect fill="#C0C0C0" stroke="none" x="865" y="167" width="197" height="327" opacity="0.2"/></g><g transform="translate(-29,-22) scale(1,1)"><rect fill="#ffffff" stroke="none" x="858" y="160" width="197" height="327"/></g><g transform="translate(-29,-22) scale(1,1)"><path fill="none" stroke="#000000" d="M 858 160 L 1055 160 L 1055 487 L 858 487 L 858 160 Z Z" stroke-miterlimit="10"/></g><g transform="translate(-29,-22) scale(1,1)"><rect fill="#ffffff" stroke="none" x="848" y="167" width="20" height="10"/></g><g transform="translate(-29,-22) scale(1,1)"><path fill="none" stroke="#000000" d="M 848 167 L 868 167 L 868 177 L 848 177 L 848 167 Z Z" stroke-miterlimit="10"/></g><g transform="translate(-29,-22) scale(1,1)"><rect fill="#ffffff" stroke="none" x="848" y="187" width="20" height="10"/></g><g transform="translate(-29,-22) scale(1,1)"><path fill="none" stroke="#000000" d="M 848 187 L 868 187 L 868 197 L 848 197 L 848 187 Z Z" stroke-miterlimit="10"/></g><g transform="translate(-29,-22) scale(1,1)"><g><path fill="none" stroke="none"/><text fill="#000000" stroke="none" font-family="Arial" font-size="13px" font-style="normal" font-weight="bold" text-decoration="none" x="923" y="179.5">REST Server</text><path fill="none" stroke="#000000" d="M 1001 179.5 L 922 179.5" stroke-miterlimit="10"/></g></g><g transform="translate(-29,-22) scale(1,1)"><g><path fill="none" stroke="none"/><text fill="#000000" stroke="none" font-family="Arial" font-size="13px" font-style="normal" font-weight="normal" text-decoration="none" x="864" y="282">Language: Ruby</text></g></g><g transform="translate(-29,-22) scale(1,1)"><g><path fill="none" stroke="none"/><text fill="#000000" stroke="none" font-family="Arial" font-size="13px" font-style="normal" font-weight="normal" text-decoration="none" x="864" y="297">Framework: Ruby on Rails</text></g></g><g transform="translate(-29,-22) scale(1,1)"><g><path fill="none" stroke="none"/><text fill="#000000" stroke="none" font-family="Arial" font-size="13px" font-style="normal" font-weight="normal" text-decoration="none" x="864" y="312">API Model: Rest</text></g></g><g transform="translate(-29,-22) scale(1,1)"><g><path fill="none" stroke="none"/><text fill="#000000" stroke="none" font-family="Arial" font-size="13px" font-style="normal" font-weight="normal" text-decoration="none" x="864" y="327">Data serialization format:</text><text fill="#000000" stroke="none" font-family="Arial" font-size="13px" font-style="normal" font-weight="normal" text-decoration="none" x="864" y="340">JSON</text></g></g><g transform="translate(-29,-22) scale(1,1)"><g><path fill="none" stroke="none"/><text fill="#000000" stroke="none" font-family="Arial" font-size="13px" font-style="normal" font-weight="normal" text-decoration="none" x="1117" y="282">Storage Type:</text><text fill="#000000" stroke="none" font-family="Arial" font-size="13px" font-style="normal" font-weight="normal" text-decoration="none" x="1117" y="295">Relational Database</text></g></g><g transform="translate(-29,-22) scale(1,1)"><g><path fill="none" stroke="none"/><text fill="#000000" stroke="none" font-family="Arial" font-size="13px" font-style="normal" font-weight="normal" text-decoration="none" x="1117" y="310">Software: Postgresql</text></g></g><g transform="translate(-29,-22) scale(1,1)"><path fill="none" stroke="#000000" d="M 951 488 L 952 656 L 136 656 L 132 361" stroke-miterlimit="10"/></g><g transform="translate(-29,-22) scale(1,1)"><path fill="none" stroke="#000000" d="M 136.34691715381 371.1046677955246 L 132 361 L 127.92865547686242 371.218813716568" stroke-miterlimit="10"/></g><g transform="translate(-29,-22) scale(1,1)"><g><path fill="none" stroke="none"/><text fill="#000000" stroke="none" font-family="Arial" font-size="13px" font-style="normal" font-weight="normal" text-decoration="none" x="521.5" y="677.5">+HTML</text></g></g><g transform="translate(-29,-22) scale(1,1)"><path fill="none" stroke="#000000" d="M 224 260 L 473 185" stroke-miterlimit="10"/></g><g transform="translate(-29,-22) scale(1,1)"><path fill="none" stroke="#000000" d="M 224 275 L 447 245" stroke-miterlimit="10"/></g><g transform="translate(-29,-22) scale(1,1)"><path fill="none" stroke="#000000" d="M 224 289 L 447 292" stroke-miterlimit="10"/></g><g transform="translate(-29,-22) scale(1,1)"><path fill="none" stroke="#000000" d="M 224 303 L 447 340" stroke-miterlimit="10"/></g><g transform="translate(-29,-22) scale(1,1)"><path fill="none" stroke="#000000" d="M 224 317 L 483 399" stroke-miterlimit="10"/></g><g transform="translate(-29,-22) scale(1,1)"><path fill="none" stroke="#000000" d="M 224 331 L 507 463" stroke-miterlimit="10"/></g><g transform="translate(-29,-22) scale(1,1)"><path fill="none" stroke="#000000" d="M 617 185 L 847 280" stroke-miterlimit="10"/></g><g transform="translate(-29,-22) scale(1,1)"><path fill="none" stroke="#000000" d="M 653 253 L 847 299" stroke-miterlimit="10"/></g><g transform="translate(-29,-22) scale(1,1)"><path fill="none" stroke="#000000" d="M 664 302 L 847 315" stroke-miterlimit="10"/></g><g transform="translate(-29,-22) scale(1,1)"><path fill="none" stroke="#000000" d="M 665 348 L 847 332" stroke-miterlimit="10"/></g><g transform="translate(-29,-22) scale(1,1)"><path fill="none" stroke="#000000" d="M 648 399 L 847 349" stroke-miterlimit="10"/></g><g transform="translate(-29,-22) scale(1,1)"><path fill="none" stroke="#000000" d="M 612 463 L 847 366" stroke-miterlimit="10"/></g><g transform="translate(-29,-22) scale(1,1)"><g><path fill="none" stroke="none"/><text fill="#000000" stroke="none" font-family="Arial" font-size="15px" font-style="normal" font-weight="normal" text-decoration="none" x="501" y="68">Public API/</text></g></g><g transform="translate(-29,-22) scale(1,1)"><g><path fill="none" stroke="none"/><text fill="#000000" stroke="none" font-family="Arial" font-size="15px" font-style="normal" font-weight="normal" text-decoration="none" x="501" y="85">REST routes</text></g></g><g transform="translate(-29,-22) scale(1,1)"><g><path fill="none" stroke="none"/><text fill="#000000" stroke="none" font-family="Arial" font-size="15px" font-style="normal" font-weight="normal" text-decoration="none" x="260" y="76">Client Communication</text></g></g><g transform="translate(-29,-22) scale(1,1)"><path fill="none" stroke="#000000" d="M 952 159 L 952 72 L 1184 72 L 1184 191" stroke-miterlimit="10"/></g><g transform="translate(-29,-22) scale(1,1)"><g><path fill="none" stroke="none"/><text fill="#000000" stroke="none" font-family="Arial" font-size="13px" font-style="normal" font-weight="normal" text-decoration="none" x="1024.5" y="63.5">+ActiveRecord</text></g></g><g transform="translate(-29,-22) scale(1,1)"><path fill="#ffffff" stroke="none" d="M 680 96 L 829 96 L 839 106 L 839 199 L 680 199 L 680 96"/></g><g transform="translate(-29,-22) scale(1,1)"><path fill="none" stroke="#000000" d="M 680 96 L 829 96 L 839 106 L 839 199 L 680 199 L 680 96 L 680 96" stroke-miterlimit="10"/></g><g transform="translate(-29,-22) scale(1,1)"><path fill="none" stroke="#000000" d="M 829 96 L 829 106 L 839 106 L 829 96" stroke-miterlimit="10"/></g><g transform="translate(-29,-22) scale(1,1)"><g><path fill="none" stroke="none"/><text fill="#000000" stroke="none" font-family="Arial" font-size="13px" font-style="normal" font-weight="normal" text-decoration="none" x="685" y="114">- Initial communication</text><text fill="#000000" stroke="none" font-family="Arial" font-size="13px" font-style="normal" font-weight="normal" text-decoration="none" x="685" y="127">sends HTML with</text><text fill="#000000" stroke="none" font-family="Arial" font-size="13px" font-style="normal" font-weight="normal" text-decoration="none" x="685" y="140">JavaScript payload</text></g></g><g transform="translate(-29,-22) scale(1,1)"><g><path fill="none" stroke="none"/></g></g><g transform="translate(-29,-22) scale(1,1)"><g><path fill="none" stroke="none"/><text fill="#000000" stroke="none" font-family="Arial" font-size="13px" font-style="normal" font-weight="normal" text-decoration="none" x="685" y="157">- All other requests over</text><text fill="#000000" stroke="none" font-family="Arial" font-size="13px" font-style="normal" font-weight="normal" text-decoration="none" x="685" y="170">HTTPS sending JSON</text><text fill="#000000" stroke="none" font-family="Arial" font-size="13px" font-style="normal" font-weight="normal" text-decoration="none" x="685" y="183">serialized data</text></g></g><g transform="translate(-29,-22) scale(1,1)"><g><path fill="none" stroke="none"/><text fill="#000000" stroke="none" font-family="Arial" font-size="15px" font-style="normal" font-weight="normal" text-decoration="none" x="677" y="76">Server Communication</text></g></g><g transform="translate(-29,-22) scale(1,1)"><path fill="#ffffff" stroke="none" d="M 248 96 L 413 96 L 423 106 L 423 151 L 248 151 L 248 96"/></g><g transform="translate(-29,-22) scale(1,1)"><path fill="none" stroke="#000000" d="M 248 96 L 413 96 L 423 106 L 423 151 L 248 151 L 248 96 L 248 96" stroke-miterlimit="10"/></g><g transform="translate(-29,-22) scale(1,1)"><path fill="none" stroke="#000000" d="M 413 96 L 413 106 L 423 106 L 413 96" stroke-miterlimit="10"/></g><g transform="translate(-29,-22) scale(1,1)"><g><path fill="none" stroke="none"/><text fill="#000000" stroke="none" font-family="Arial" font-size="13px" font-style="normal" font-weight="normal" text-decoration="none" x="253" y="114">- Client uses AJAX to</text><text fill="#000000" stroke="none" font-family="Arial" font-size="13px" font-style="normal" font-weight="normal" text-decoration="none" x="253" y="127">perform get/put/post/delete</text><text fill="#000000" stroke="none" font-family="Arial" font-size="13px" font-style="normal" font-weight="normal" text-decoration="none" x="253" y="140">requests</text></g></g></g></svg>